<svg width="40" height="40" viewBox="0 0 40 40" fill="none" xmlns="http://www.w3.org/2000/svg">
<g filter="url(#filter0_d_1513_6779)">
<g clip-path="url(#clip0_1513_6779)">
<path d="M20 32C28.8366 32 36 24.8366 36 16C36 7.16344 28.8366 0 20 0C11.1634 0 4 7.16344 4 16C4 24.8366 11.1634 32 20 32Z" fill="black"/>
<path d="M19.8501 4L32.0001 11.3767V18.7536L19.8501 11.3767V4Z" fill="url(#paint0_linear_1513_6779)"/>
<path d="M19.8501 26.95L32.0001 19.6478V12.3455L19.8501 19.6478V26.95Z" fill="url(#paint1_linear_1513_6779)"/>
<path d="M19.85 4L8 11.3767V18.7536L19.85 11.3767V4Z" fill="url(#paint2_linear_1513_6779)"/>
<path d="M19.85 26.95L8 19.6478V12.3455L19.85 19.6478V26.95Z" fill="url(#paint3_linear_1513_6779)"/>
<path d="M16.7584 13.6016C16.6938 13.3769 16.603 13.1784 16.486 13.006C16.3691 12.8306 16.226 12.6829 16.0567 12.5629C15.8905 12.4397 15.6997 12.3459 15.4842 12.2812C15.2719 12.2166 15.0364 12.1843 14.7779 12.1843C14.2947 12.1843 13.87 12.3043 13.5038 12.5444C13.1406 12.7844 12.8575 13.1338 12.6543 13.5923C12.4512 14.0478 12.3497 14.6049 12.3497 15.2635C12.3497 15.9221 12.4497 16.4822 12.6497 16.9439C12.8498 17.4055 13.1329 17.7579 13.4992 18.0011C13.8654 18.2411 14.2978 18.3612 14.7964 18.3612C15.2488 18.3612 15.635 18.2811 15.9551 18.1211C16.2783 17.958 16.5245 17.7287 16.6938 17.4332C16.8661 17.1378 16.9523 16.7885 16.9523 16.3853L17.3585 16.4453H14.921V14.9403H18.8774V16.1314C18.8774 16.9624 18.7019 17.6764 18.3511 18.2734C18.0002 18.8674 17.517 19.326 16.9015 19.6491C16.286 19.9692 15.5812 20.1293 14.7872 20.1293C13.9008 20.1293 13.1221 19.9338 12.4512 19.543C11.7803 19.149 11.2571 18.5904 10.8816 17.8672C10.5092 17.1409 10.323 16.2791 10.323 15.282C10.323 14.5156 10.4338 13.8324 10.6554 13.2322C10.8801 12.629 11.194 12.1181 11.5972 11.6996C12.0003 11.281 12.4697 10.9625 13.0052 10.744C13.5407 10.5254 14.1208 10.4162 14.7456 10.4162C15.2811 10.4162 15.7797 10.4947 16.2413 10.6516C16.703 10.8055 17.1123 11.024 17.4693 11.3072C17.8294 11.5903 18.1233 11.9273 18.3511 12.3182C18.5788 12.706 18.725 13.1338 18.7896 13.6016H16.7584ZM28.7208 13.8555H26.6988C26.6619 13.5939 26.5865 13.3615 26.4726 13.1584C26.3587 12.9522 26.2126 12.7768 26.034 12.6321C25.8555 12.4875 25.6493 12.3767 25.4154 12.2997C25.1846 12.2228 24.9338 12.1843 24.663 12.1843C24.1736 12.1843 23.7474 12.3059 23.3842 12.549C23.021 12.7891 22.7394 13.1399 22.5394 13.6016C22.3393 14.0601 22.2393 14.6172 22.2393 15.2727C22.2393 15.9467 22.3393 16.513 22.5394 16.9716C22.7425 17.4302 23.0256 17.7764 23.3888 18.0103C23.752 18.2442 24.1721 18.3612 24.6491 18.3612C24.9169 18.3612 25.1646 18.3258 25.3924 18.255C25.6232 18.1842 25.8278 18.0811 26.0063 17.9457C26.1849 17.8072 26.3326 17.6394 26.4495 17.4425C26.5696 17.2455 26.6527 17.0208 26.6988 16.7685L28.7208 16.7777C28.6685 17.2116 28.5377 17.6302 28.3284 18.0334C28.1222 18.4335 27.8437 18.792 27.4929 19.109C27.1451 19.4229 26.7296 19.6722 26.2464 19.8569C25.7663 20.0385 25.2231 20.1293 24.6168 20.1293C23.7735 20.1293 23.0195 19.9384 22.3547 19.5568C21.693 19.1752 21.1698 18.6228 20.7851 17.8995C20.4035 17.1763 20.2127 16.3007 20.2127 15.2727C20.2127 14.2417 20.4066 13.3646 20.7943 12.6413C21.1821 11.9181 21.7084 11.3672 22.3732 10.9886C23.038 10.607 23.7858 10.4162 24.6168 10.4162C25.1646 10.4162 25.6724 10.4931 26.1402 10.647C26.6111 10.8009 27.0281 11.0256 27.3913 11.321C27.7545 11.6134 28.0499 11.9719 28.2777 12.3967C28.5085 12.8214 28.6562 13.3076 28.7208 13.8555Z" fill="url(#paint4_linear_1513_6779)"/>
<path d="M16.7584 13.6016L16.2779 13.7398L16.3819 14.1016H16.7584V13.6016ZM16.486 13.006L16.07 13.2834L16.0723 13.2868L16.486 13.006ZM16.0567 12.5629L15.759 12.9647L15.7675 12.9707L16.0567 12.5629ZM15.4842 12.2812L15.3387 12.7596L15.3406 12.7602L15.4842 12.2812ZM13.5038 12.5444L13.2297 12.1262L13.2281 12.1273L13.5038 12.5444ZM12.6543 13.5923L13.111 13.796L13.1115 13.7948L12.6543 13.5923ZM13.4992 18.0011L13.2226 18.4176L13.2251 18.4192L13.4992 18.0011ZM15.9551 18.1211L16.1787 18.5683L16.1804 18.5675L15.9551 18.1211ZM16.6938 17.4332L16.2619 17.1813L16.2599 17.1847L16.6938 17.4332ZM16.9523 16.3853L17.0254 15.8907L16.4523 15.806V16.3853H16.9523ZM17.3585 16.4453V16.9453L17.4316 15.9507L17.3585 16.4453ZM14.921 16.4453H14.421V16.9453H14.921V16.4453ZM14.921 14.9403V14.4403H14.421V14.9403H14.921ZM18.8774 14.9403H19.3774V14.4403H18.8774V14.9403ZM18.3511 18.2734L18.7816 18.5277L18.7822 18.5268L18.3511 18.2734ZM16.9015 19.6491L17.1322 20.0928L17.1339 20.0918L16.9015 19.6491ZM12.4512 19.543L12.1981 19.9741L12.1995 19.975L12.4512 19.543ZM10.8816 17.8672L10.4367 18.0953L10.4379 18.0976L10.8816 17.8672ZM10.6554 13.2322L10.1868 13.0577L10.1864 13.0591L10.6554 13.2322ZM11.5972 11.6996L11.9573 12.0464L11.9573 12.0464L11.5972 11.6996ZM13.0052 10.744L12.8163 10.281L12.8163 10.281L13.0052 10.744ZM16.2413 10.6516L16.0804 11.125L16.0832 11.126L16.2413 10.6516ZM17.4693 11.3072L17.1586 11.6989L17.1603 11.7002L17.4693 11.3072ZM18.3511 12.3182L17.9191 12.5699L17.9199 12.5714L18.3511 12.3182ZM18.7896 13.6016V14.1016H19.3635L19.2849 13.5331L18.7896 13.6016ZM17.2389 13.4633C17.1614 13.1941 17.0497 12.9463 16.8998 12.7253L16.0723 13.2868C16.1562 13.4105 16.2261 13.5597 16.2779 13.7398L17.2389 13.4633ZM16.902 12.7287C16.7517 12.5032 16.5659 12.311 16.3459 12.155L15.7675 12.9707C15.886 13.0548 15.9864 13.158 16.07 13.2834L16.902 12.7287ZM16.3543 12.1611C16.1377 12.0007 15.8939 11.8821 15.6279 11.8023L15.3406 12.7602C15.5055 12.8096 15.6432 12.8788 15.7591 12.9646L16.3543 12.1611ZM15.6298 11.8029C15.3633 11.7218 15.0779 11.6843 14.7779 11.6843V12.6843C14.995 12.6843 15.1805 12.7115 15.3387 12.7596L15.6298 11.8029ZM14.7779 11.6843C14.2078 11.6843 13.6857 11.8273 13.2297 12.1262L13.7779 12.9626C14.0543 12.7814 14.3817 12.6843 14.7779 12.6843V11.6843ZM13.2281 12.1273C12.7736 12.4277 12.433 12.8575 12.1972 13.3898L13.1115 13.7948C13.2819 13.4101 13.5076 13.1412 13.7795 12.9615L13.2281 12.1273ZM12.1977 13.3887C11.9584 13.9253 11.8497 14.5561 11.8497 15.2635H12.8497C12.8497 14.6536 12.944 14.1703 13.111 13.796L12.1977 13.3887ZM11.8497 15.2635C11.8497 15.9703 11.9567 16.6021 12.1909 17.1427L13.1085 16.7451C12.9427 16.3624 12.8497 15.8739 12.8497 15.2635H11.8497ZM12.1909 17.1427C12.4237 17.6799 12.7647 18.1136 13.2226 18.4176L13.7757 17.5845C13.5011 17.4022 13.2758 17.1312 13.1085 16.7451L12.1909 17.1427ZM13.2251 18.4192C13.6836 18.7198 14.2143 18.8612 14.7964 18.8612V17.8612C14.3813 17.8612 14.0472 17.7624 13.7733 17.5829L13.2251 18.4192ZM14.7964 18.8612C15.3065 18.8612 15.7733 18.771 16.1787 18.5683L15.7315 17.6739C15.4968 17.7913 15.1911 17.8612 14.7964 17.8612V18.8612ZM16.1804 18.5675C16.5852 18.3632 16.9066 18.0676 17.1276 17.6818L16.2599 17.1847C16.1424 17.3898 15.9714 17.5528 15.7298 17.6747L16.1804 18.5675ZM17.1256 17.6852C17.35 17.3006 17.4523 16.8611 17.4523 16.3853H16.4523C16.4523 16.7159 16.3822 16.975 16.2619 17.1813L17.1256 17.6852ZM16.8792 16.8799L17.2855 16.9399L17.4316 15.9507L17.0254 15.8907L16.8792 16.8799ZM17.3585 15.9453H14.921V16.9453H17.3585V15.9453ZM15.421 16.4453V14.9403H14.421V16.4453H15.421ZM14.921 15.4403H18.8774V14.4403H14.921V15.4403ZM18.3774 14.9403V16.1314H19.3774V14.9403H18.3774ZM18.3774 16.1314C18.3774 16.8911 18.2175 17.5139 17.92 18.0201L18.7822 18.5268C19.1864 17.8388 19.3774 17.0336 19.3774 16.1314H18.3774ZM17.9206 18.0191C17.6173 18.5325 17.203 18.9261 16.6691 19.2064L17.1339 20.0918C17.831 19.7259 18.3831 19.2024 18.7816 18.5277L17.9206 18.0191ZM16.6708 19.2055C16.1362 19.4835 15.5126 19.6293 14.7872 19.6293V20.6293C15.6498 20.6293 16.4357 20.4549 17.1322 20.0928L16.6708 19.2055ZM14.7872 19.6293C13.9765 19.6293 13.2871 19.4513 12.7029 19.1109L12.1995 19.975C12.9572 20.4164 13.8251 20.6293 14.7872 20.6293V19.6293ZM12.7044 19.1118C12.1186 18.7678 11.6596 18.2807 11.3254 17.6368L10.4379 18.0976C10.8545 18.9002 11.442 19.5302 12.1981 19.9741L12.7044 19.1118ZM11.3265 17.6391C10.9975 16.9973 10.823 16.2171 10.823 15.282H9.82302C9.82302 16.3411 10.0209 17.2844 10.4367 18.0953L11.3265 17.6391ZM10.823 15.282C10.823 14.5633 10.9269 13.9404 11.1245 13.4054L10.1864 13.0591C9.94069 13.7244 9.82302 14.4679 9.82302 15.282H10.823ZM11.124 13.4068C11.3273 12.8609 11.6066 12.4105 11.9573 12.0464L11.2371 11.3527C10.7814 11.8257 10.4329 12.3972 10.1869 13.0577L11.124 13.4068ZM11.9573 12.0464C12.3123 11.6778 12.7234 11.399 13.1941 11.2069L12.8163 10.281C12.2159 10.526 11.6883 10.8842 11.2371 11.3527L11.9573 12.0464ZM13.1941 11.2069C13.665 11.0148 14.1804 10.9162 14.7456 10.9162V9.91619C14.0613 9.91619 13.4164 10.0361 12.8163 10.281L13.1941 11.2069ZM14.7456 10.9162C15.2317 10.9162 15.6754 10.9873 16.0804 11.125L16.4023 10.1782C15.884 10.002 15.3305 9.91619 14.7456 9.91619V10.9162ZM16.0832 11.126C16.4934 11.2627 16.8503 11.4544 17.1586 11.6989L17.78 10.9154C17.3743 10.5937 16.9126 10.3483 16.3995 10.1773L16.0832 11.126ZM17.1603 11.7002C17.4715 11.9449 17.7234 12.2342 17.9191 12.5699L18.7831 12.0665C18.5232 11.6205 18.1874 11.2357 17.7784 10.9141L17.1603 11.7002ZM17.9199 12.5714C18.1127 12.8996 18.2383 13.2641 18.2943 13.67L19.2849 13.5331C19.2118 13.0034 19.045 12.5123 18.7822 12.065L17.9199 12.5714ZM18.7896 13.1016H16.7584V14.1016H18.7896V13.1016ZM28.7208 13.8555V14.3555H29.2833L29.2174 13.7969L28.7208 13.8555ZM26.6988 13.8555L26.2037 13.9254L26.2644 14.3555H26.6988V13.8555ZM26.4726 13.1584L26.0349 13.4001L26.0365 13.4029L26.4726 13.1584ZM26.034 12.6321L25.7193 13.0206L25.7193 13.0206L26.034 12.6321ZM25.4154 12.2997L25.2573 12.7741L25.2592 12.7747L25.4154 12.2997ZM23.3842 12.549L23.6599 12.9661L23.6624 12.9645L23.3842 12.549ZM22.5394 13.6016L22.9977 13.8015L22.9982 13.8004L22.5394 13.6016ZM22.5394 16.9716L22.0811 17.1715L22.0822 17.1741L22.5394 16.9716ZM23.3888 18.0103L23.1181 18.4307L23.1181 18.4307L23.3888 18.0103ZM25.3924 18.255L25.2458 17.7769L25.244 17.7775L25.3924 18.255ZM26.0063 17.9457L26.3086 18.344L26.3128 18.3407L26.0063 17.9457ZM26.4495 17.4425L26.0225 17.1823L26.0196 17.1872L26.4495 17.4425ZM26.6988 16.7685L26.7011 16.2685L26.2823 16.2666L26.207 16.6785L26.6988 16.7685ZM28.7208 16.7777L29.2172 16.8375L29.2844 16.2803L28.7231 16.2777L28.7208 16.7777ZM28.3284 18.0334L27.8847 17.803L27.884 17.8043L28.3284 18.0334ZM27.4929 19.109L27.8279 19.4802L27.8281 19.48L27.4929 19.109ZM26.2464 19.8569L26.4233 20.3246L26.4249 20.3239L26.2464 19.8569ZM22.3547 19.5568L22.1049 19.9899L22.1058 19.9904L22.3547 19.5568ZM20.7851 17.8995L20.3429 18.1328L20.3437 18.1343L20.7851 17.8995ZM20.7943 12.6413L21.235 12.8776L21.235 12.8776L20.7943 12.6413ZM22.3732 10.9886L22.6206 11.4231L22.6221 11.4223L22.3732 10.9886ZM26.1402 10.647L25.984 11.122L25.9849 11.1223L26.1402 10.647ZM27.3913 11.321L27.0757 11.7089L27.0777 11.7105L27.3913 11.321ZM28.2777 12.3967L27.837 12.633L27.8383 12.6354L28.2777 12.3967ZM28.7208 13.3555H26.6988V14.3555H28.7208V13.3555ZM27.1939 13.7856C27.1495 13.4708 27.0567 13.1778 26.9088 12.9139L26.0365 13.4029C26.1162 13.5452 26.1743 13.7169 26.2037 13.9254L27.1939 13.7856ZM26.9103 12.9167C26.7661 12.6555 26.5787 12.4299 26.3488 12.2436L25.7193 13.0206C25.8464 13.1236 25.9514 13.2488 26.0349 13.4001L26.9103 12.9167ZM26.3488 12.2436C26.1199 12.0581 25.8591 11.9193 25.5717 11.8248L25.2592 12.7747C25.4396 12.834 25.5912 12.9168 25.7193 13.0206L26.3488 12.2436ZM25.5736 11.8254C25.2863 11.7296 24.9815 11.6843 24.663 11.6843V12.6843C24.8861 12.6843 25.0829 12.7159 25.2573 12.7741L25.5736 11.8254ZM24.663 11.6843C24.0869 11.6843 23.5611 11.8288 23.106 12.1335L23.6624 12.9645C23.9336 12.7829 24.2604 12.6843 24.663 12.6843V11.6843ZM23.1085 12.1319C22.6524 12.4334 22.3131 12.8663 22.0806 13.4028L22.9982 13.8004C23.1658 13.4135 23.3896 13.1448 23.6599 12.9661L23.1085 12.1319ZM22.0811 13.4016C21.8464 13.9396 21.7393 14.5687 21.7393 15.2727H22.7393C22.7393 14.6656 22.8322 14.1807 22.9977 13.8015L22.0811 13.4016ZM21.7393 15.2727C21.7393 15.993 21.8457 16.6321 22.0811 17.1715L22.9977 16.7717C22.8329 16.394 22.7393 15.9005 22.7393 15.2727H21.7393ZM22.0822 17.1741C22.3184 17.7072 22.6603 18.1358 23.1181 18.4307L23.6595 17.5899C23.391 17.417 23.1666 17.1531 22.9965 16.7691L22.0822 17.1741ZM23.1181 18.4307C23.5703 18.7219 24.0864 18.8612 24.6491 18.8612V17.8612C24.2577 17.8612 23.9337 17.7665 23.6595 17.5899L23.1181 18.4307ZM24.6491 18.8612C24.9611 18.8612 25.2595 18.8199 25.5408 18.7324L25.244 17.7775C25.0697 17.8316 24.8726 17.8612 24.6491 17.8612V18.8612ZM25.539 18.733C25.8215 18.6463 26.0797 18.5176 26.3085 18.344L25.7042 17.5473C25.5759 17.6446 25.4248 17.722 25.2458 17.7769L25.539 18.733ZM26.3128 18.3407C26.5416 18.1632 26.7309 17.9479 26.8795 17.6977L26.0196 17.1872C25.9342 17.331 25.8281 17.4511 25.6998 17.5506L26.3128 18.3407ZM26.8765 17.7027C27.0318 17.4479 27.1347 17.1643 27.1907 16.8584L26.207 16.6785C26.1706 16.8774 26.1073 17.0432 26.0226 17.1823L26.8765 17.7027ZM26.6965 17.2685L28.7186 17.2777L28.7231 16.2777L26.7011 16.2685L26.6965 17.2685ZM28.2244 16.7178C28.1796 17.0899 28.0674 17.451 27.8847 17.803L28.7722 18.2637C29.008 17.8095 29.1575 17.3334 29.2172 16.8375L28.2244 16.7178ZM27.884 17.8043C27.7067 18.1482 27.4661 18.4593 27.1577 18.738L27.8281 19.48C28.2213 19.1247 28.5377 18.7187 28.7729 18.2624L27.884 17.8043ZM27.1578 18.7379C26.8604 19.0063 26.4995 19.2249 26.0679 19.3898L26.4249 20.3239C26.9597 20.1195 27.4298 19.8395 27.8279 19.4802L27.1578 18.7379ZM26.0695 19.3892C25.6552 19.5459 25.1734 19.6293 24.6168 19.6293V20.6293C25.2728 20.6293 25.8774 20.531 26.4233 20.3246L26.0695 19.3892ZM24.6168 19.6293C23.8519 19.6293 23.1852 19.4571 22.6036 19.1232L22.1058 19.9904C22.8537 20.4198 23.6951 20.6293 24.6168 20.6293V19.6293ZM22.6045 19.1237C22.0299 18.7923 21.5706 18.3114 21.2265 17.6647L20.3437 18.1343C20.7691 18.9341 21.3561 19.5581 22.1049 19.9899L22.6045 19.1237ZM21.2273 17.6662C20.8922 17.031 20.7127 16.2398 20.7127 15.2727H19.7127C19.7127 16.3615 19.9148 17.3215 20.3429 18.1328L21.2273 17.6662ZM20.7127 15.2727C20.7127 14.3034 20.8949 13.5119 21.235 12.8776L20.3537 12.4051C19.9182 13.2173 19.7127 14.18 19.7127 15.2727H20.7127ZM21.235 12.8776C21.5817 12.231 22.0436 11.7517 22.6206 11.4231L22.1258 10.5541C21.3732 10.9827 20.7826 11.6052 20.3537 12.4051L21.235 12.8776ZM22.6221 11.4223C23.2048 11.0877 23.8656 10.9162 24.6168 10.9162V9.91619C23.706 9.91619 22.8711 10.1263 22.1242 10.555L22.6221 11.4223ZM24.6168 10.9162C25.1174 10.9162 25.5719 10.9864 25.984 11.122L26.2965 10.1721C25.7729 9.99983 25.2118 9.91619 24.6168 9.91619V10.9162ZM25.9849 11.1223C26.4009 11.2582 26.7629 11.4544 27.0757 11.7089L27.7068 10.9332C27.2934 10.5968 26.8213 10.3436 26.2955 10.1718L25.9849 11.1223ZM27.0777 11.7105C27.3869 11.9594 27.6398 12.2653 27.837 12.6329L28.7183 12.1604C28.46 11.6786 28.122 11.2674 27.7048 10.9316L27.0777 11.7105ZM27.8383 12.6354C28.0348 12.9969 28.1661 13.4205 28.2243 13.9141L29.2174 13.7969C29.1464 13.1948 28.9821 12.6458 28.717 12.1579L27.8383 12.6354Z" fill="#E9E4E4" fill-opacity="0.6"/>
</g>
</g>
<defs>
<filter id="filter0_d_1513_6779" x="0" y="0" width="40" height="40" filterUnits="userSpaceOnUse" color-interpolation-filters="sRGB">
<feFlood flood-opacity="0" result="BackgroundImageFix"/>
<feColorMatrix in="SourceAlpha" type="matrix" values="0 0 0 0 0 0 0 0 0 0 0 0 0 0 0 0 0 0 127 0" result="hardAlpha"/>
<feOffset dy="4"/>
<feGaussianBlur stdDeviation="2"/>
<feComposite in2="hardAlpha" operator="out"/>
<feColorMatrix type="matrix" values="0 0 0 0 0 0 0 0 0 0 0 0 0 0 0 0 0 0 0.25 0"/>
<feBlend mode="normal" in2="BackgroundImageFix" result="effect1_dropShadow_1513_6779"/>
<feBlend mode="normal" in="SourceGraphic" in2="effect1_dropShadow_1513_6779" result="shape"/>
</filter>
<linearGradient id="paint0_linear_1513_6779" x1="42.3608" y1="11.3356" x2="12.3995" y2="11.3356" gradientUnits="userSpaceOnUse">
<stop stop-color="#996939"/>
<stop offset="1" stop-color="#D0A875"/>
</linearGradient>
<linearGradient id="paint1_linear_1513_6779" x1="25.9251" y1="26.95" x2="28.8758" y2="-0.985211" gradientUnits="userSpaceOnUse">
<stop stop-color="#272728"/>
<stop offset="1" stop-color="#4B4B4B"/>
</linearGradient>
<linearGradient id="paint2_linear_1513_6779" x1="19.9232" y1="7.02448" x2="7.99645" y2="16.3688" gradientUnits="userSpaceOnUse">
<stop stop-color="#996939"/>
<stop offset="1" stop-color="#D0A875"/>
</linearGradient>
<linearGradient id="paint3_linear_1513_6779" x1="13.925" y1="26.95" x2="13.925" y2="12.3455" gradientUnits="userSpaceOnUse">
<stop stop-color="#363636"/>
<stop offset="1" stop-color="#333232"/>
</linearGradient>
<linearGradient id="paint4_linear_1513_6779" x1="19.5" y1="7" x2="19.5" y2="179.939" gradientUnits="userSpaceOnUse">
<stop stop-color="#BE9461"/>
<stop offset="0.375" stop-color="#B18553"/>
<stop offset="1" stop-color="#9C6C3C"/>
</linearGradient>
<clipPath id="clip0_1513_6779">
<rect width="32" height="32" fill="white" transform="translate(4)"/>
</clipPath>
</defs>
</svg>
