<svg width="173" height="30" viewBox="0 0 173 30" fill="none" xmlns="http://www.w3.org/2000/svg">
<path d="M39.6242 24V5.81818H43.4683V13.8349H43.708L50.251 5.81818H54.8586L48.1114 13.9592L54.9385 24H50.3398L45.3593 16.5249L43.4683 18.8331V24H39.6242ZM57.917 24L54.2061 10.3636H58.0324L60.1453 19.5256H60.2696L62.4713 10.3636H66.2267L68.4639 19.4723H68.5793L70.6567 10.3636H74.4742L70.7721 24H66.7682L64.4244 15.424H64.2558L61.912 24H57.917ZM82.3643 24.2663C80.9616 24.2663 79.7543 23.9822 78.7422 23.4141C77.736 22.84 76.9607 22.0291 76.4162 20.9815C75.8717 19.928 75.5994 18.6822 75.5994 17.244C75.5994 15.8413 75.8717 14.6102 76.4162 13.5508C76.9607 12.4914 77.7272 11.6657 78.7156 11.0739C79.7099 10.482 80.8758 10.1861 82.2134 10.1861C83.113 10.1861 83.9505 10.3311 84.7259 10.6211C85.5071 10.9052 86.1877 11.3343 86.7678 11.9084C87.3537 12.4825 87.8094 13.2045 88.1349 14.0746C88.4605 14.9387 88.6232 15.9508 88.6232 17.1108V18.1495H77.1087V15.8058H85.0632C85.0632 15.2612 84.9448 14.7789 84.7081 14.3587C84.4714 13.9384 84.1429 13.61 83.7227 13.3732C83.3084 13.1306 82.826 13.0092 82.2756 13.0092C81.7015 13.0092 81.1925 13.1424 80.7486 13.4087C80.3106 13.6692 79.9673 14.0213 79.7188 14.4652C79.4702 14.9032 79.3429 15.3915 79.337 15.93V18.1584C79.337 18.8331 79.4613 19.4161 79.7099 19.9073C79.9644 20.3986 80.3224 20.7773 80.7841 21.0437C81.2457 21.31 81.7932 21.4432 82.4265 21.4432C82.8467 21.4432 83.2314 21.384 83.5806 21.2656C83.9298 21.1473 84.2287 20.9697 84.4773 20.733C84.7259 20.4962 84.9152 20.2062 85.0455 19.8629L88.5433 20.0938C88.3658 20.9342 88.0018 21.6681 87.4513 22.2955C86.9068 22.9169 86.2025 23.4022 85.3384 23.7514C84.4802 24.0947 83.4889 24.2663 82.3643 24.2663ZM94.8732 16.1165V24H91.0913V10.3636H94.6957V12.7695H94.8555C95.1573 11.9764 95.6634 11.3491 96.3736 10.8874C97.0838 10.4199 97.945 10.1861 98.957 10.1861C99.904 10.1861 100.73 10.3932 101.434 10.8075C102.138 11.2218 102.686 11.8137 103.076 12.5831C103.467 13.3466 103.662 14.258 103.662 15.3175V24H99.8803V15.9922C99.8862 15.1577 99.6732 14.5066 99.2411 14.0391C98.8091 13.5656 98.2143 13.3288 97.4567 13.3288C96.9477 13.3288 96.4979 13.4383 96.1072 13.6573C95.7225 13.8763 95.4207 14.1959 95.2017 14.6161C94.9886 15.0304 94.8791 15.5305 94.8732 16.1165ZM113.896 10.3636V13.2045H105.684V10.3636H113.896ZM107.549 7.09659H111.331V19.8097C111.331 20.1589 111.384 20.4311 111.49 20.6264C111.597 20.8158 111.745 20.949 111.934 21.0259C112.13 21.1029 112.354 21.1413 112.609 21.1413C112.786 21.1413 112.964 21.1265 113.142 21.0969C113.319 21.0614 113.455 21.0348 113.55 21.017L114.145 23.8313C113.955 23.8905 113.689 23.9586 113.346 24.0355C113.003 24.1184 112.585 24.1687 112.094 24.1864C111.183 24.2219 110.384 24.1006 109.697 23.8224C109.016 23.5443 108.487 23.1122 108.108 22.5263C107.729 21.9403 107.543 21.2005 107.549 20.3068V7.09659ZM120.248 24.2575C119.378 24.2575 118.603 24.1065 117.922 23.8047C117.242 23.4969 116.703 23.0442 116.307 22.4464C115.916 21.8427 115.721 21.091 115.721 20.1914C115.721 19.4338 115.86 18.7976 116.138 18.2827C116.416 17.7678 116.795 17.3535 117.274 17.0398C117.754 16.7261 118.298 16.4893 118.908 16.3295C119.523 16.1697 120.168 16.0573 120.843 15.9922C121.636 15.9093 122.275 15.8324 122.761 15.7614C123.246 15.6844 123.598 15.572 123.817 15.424C124.036 15.276 124.146 15.0571 124.146 14.767V14.7138C124.146 14.1515 123.968 13.7165 123.613 13.4087C123.264 13.101 122.767 12.9471 122.122 12.9471C121.441 12.9471 120.899 13.098 120.497 13.3999C120.094 13.6958 119.828 14.0687 119.698 14.5185L116.2 14.2344C116.378 13.4058 116.727 12.6896 117.248 12.0859C117.768 11.4763 118.44 11.0088 119.263 10.6832C120.091 10.3518 121.05 10.1861 122.139 10.1861C122.897 10.1861 123.622 10.2749 124.314 10.4524C125.013 10.63 125.631 10.9052 126.17 11.2781C126.714 11.6509 127.143 12.1303 127.457 12.7163C127.771 13.2963 127.928 13.9917 127.928 14.8026V24H124.341V22.109H124.234C124.015 22.5352 123.723 22.911 123.356 23.2365C122.989 23.5561 122.548 23.8076 122.033 23.9911C121.518 24.1687 120.923 24.2575 120.248 24.2575ZM121.331 21.6474C121.888 21.6474 122.379 21.5379 122.805 21.3189C123.231 21.094 123.566 20.7921 123.808 20.4134C124.051 20.0346 124.172 19.6055 124.172 19.1261V17.679C124.054 17.7559 123.891 17.8269 123.684 17.892C123.483 17.9512 123.255 18.0075 123 18.0607C122.746 18.1081 122.491 18.1525 122.237 18.1939C121.982 18.2294 121.752 18.262 121.544 18.2915C121.101 18.3567 120.713 18.4602 120.381 18.6023C120.05 18.7443 119.793 18.9367 119.609 19.1793C119.426 19.4161 119.334 19.712 119.334 20.0671C119.334 20.582 119.52 20.9756 119.893 21.2479C120.272 21.5142 120.751 21.6474 121.331 21.6474ZM148.775 11.6953C148.651 11.2633 148.476 10.8815 148.251 10.5501C148.026 10.2127 147.751 9.92862 147.426 9.6978C147.106 9.46106 146.739 9.28054 146.325 9.15625C145.916 9.03196 145.464 8.96982 144.966 8.96982C144.037 8.96982 143.22 9.20064 142.516 9.66229C141.818 10.1239 141.273 10.7957 140.883 11.6776C140.492 12.5535 140.297 13.6248 140.297 14.8913C140.297 16.1579 140.489 17.2351 140.874 18.1229C141.258 19.0107 141.803 19.6883 142.507 20.1559C143.212 20.6175 144.043 20.8484 145.002 20.8484C145.872 20.8484 146.615 20.6945 147.23 20.3867C147.852 20.073 148.325 19.6321 148.651 19.0639C148.982 18.4957 149.148 17.824 149.148 17.0487L149.929 17.1641H145.242V14.2699H152.85V16.5604C152.85 18.1584 152.513 19.5315 151.838 20.6797C151.163 21.822 150.234 22.7038 149.05 23.3253C147.867 23.9408 146.511 24.2486 144.984 24.2486C143.28 24.2486 141.782 23.8728 140.492 23.1211C139.202 22.3635 138.196 21.2893 137.474 19.8984C136.757 18.5017 136.399 16.8445 136.399 14.9268C136.399 13.4531 136.612 12.1392 137.039 10.9851C137.471 9.82505 138.074 8.84257 138.85 8.03764C139.625 7.23272 140.528 6.62015 141.557 6.19993C142.587 5.77971 143.703 5.5696 144.904 5.5696C145.934 5.5696 146.893 5.72053 147.781 6.02237C148.669 6.3183 149.456 6.73852 150.142 7.28303C150.835 7.82753 151.4 8.47561 151.838 9.22727C152.276 9.97301 152.557 10.7957 152.681 11.6953H148.775ZM171.78 12.1836H167.891C167.82 11.6805 167.675 11.2337 167.456 10.843C167.237 10.4465 166.956 10.1091 166.613 9.83097C166.27 9.55279 165.873 9.33972 165.423 9.19176C164.979 9.0438 164.497 8.96982 163.976 8.96982C163.035 8.96982 162.215 9.2036 161.517 9.67116C160.819 10.1328 160.277 10.8075 159.892 11.6953C159.508 12.5772 159.315 13.6484 159.315 14.9091C159.315 16.2053 159.508 17.2943 159.892 18.1761C160.283 19.058 160.827 19.7238 161.526 20.1737C162.224 20.6235 163.032 20.8484 163.949 20.8484C164.464 20.8484 164.941 20.7803 165.379 20.6442C165.823 20.508 166.216 20.3098 166.56 20.0494C166.903 19.783 167.187 19.4605 167.412 19.0817C167.643 18.7029 167.802 18.2708 167.891 17.7855L171.78 17.8033C171.679 18.6378 171.428 19.4427 171.025 20.218C170.629 20.9875 170.093 21.677 169.418 22.2866C168.749 22.8903 167.95 23.3697 167.021 23.7248C166.098 24.074 165.053 24.2486 163.887 24.2486C162.266 24.2486 160.816 23.8816 159.537 23.1477C158.265 22.4138 157.259 21.3514 156.519 19.9606C155.785 18.5697 155.418 16.8859 155.418 14.9091C155.418 12.9264 155.791 11.2396 156.536 9.84872C157.282 8.45786 158.294 7.39844 159.573 6.67045C160.851 5.93655 162.289 5.5696 163.887 5.5696C164.941 5.5696 165.917 5.71757 166.817 6.01349C167.723 6.30942 168.525 6.74148 169.223 7.30966C169.921 7.87192 170.489 8.56143 170.927 9.3782C171.371 10.195 171.655 11.1301 171.78 12.1836Z" fill="url(#paint0_linear_1508_6840)"/>
<path d="M17.4481 0L33.1881 9.29405V18.5881L17.4481 9.29405V0Z" fill="url(#paint1_linear_1508_6840)"/>
<path d="M17.4481 28.915L33.1881 19.7148V10.5145L17.4481 19.7148V28.915Z" fill="url(#paint2_linear_1508_6840)"/>
<path d="M17.4481 0L2.0968 9.29405V18.5881L17.4481 9.29405V0Z" fill="url(#paint3_linear_1508_6840)"/>
<path d="M17.4481 28.915L2.0968 19.7148V10.5145L17.4481 19.7148V28.915Z" fill="url(#paint4_linear_1508_6840)"/>
<path d="M13.4182 11.8653C13.322 11.5412 13.1868 11.2549 13.0127 11.0063C12.8386 10.7533 12.6255 10.5403 12.3735 10.3671C12.1261 10.1896 11.842 10.0542 11.5212 9.96098C11.2051 9.86776 10.8545 9.82115 10.4696 9.82115C9.75026 9.82115 9.11792 9.99428 8.57265 10.3405C8.03196 10.6867 7.61041 11.1906 7.30799 11.852C7.00557 12.5089 6.85436 13.3124 6.85436 14.2623C6.85436 15.2122 7.00328 16.02 7.30112 16.686C7.59896 17.3518 8.0205 17.86 8.56578 18.2107C9.11105 18.5569 9.75484 18.73 10.4971 18.73C11.1707 18.73 11.7458 18.6147 12.2223 18.3838C12.7034 18.1486 13.07 17.8179 13.322 17.3918C13.5786 16.9657 13.7069 16.4618 13.7069 15.8804L14.3117 15.9669H10.6827V13.7962H16.5729V15.5141C16.5729 16.7125 16.3118 17.7424 15.7895 18.6035C15.2671 19.4602 14.5477 20.1216 13.6313 20.5877C12.7149 21.0494 11.6656 21.2802 10.4834 21.2802C9.16375 21.2802 8.00447 20.9983 7.00557 20.4346C6.00667 19.8664 5.22771 19.0608 4.6687 18.0175C4.11426 16.97 3.83704 15.7271 3.83704 14.2889C3.83704 13.1836 4.00199 12.1982 4.33191 11.3326C4.66641 10.4626 5.13378 9.72571 5.73404 9.12203C6.33429 8.51832 7.03307 8.0589 7.83034 7.74375C8.62763 7.42857 9.49136 7.271 10.4215 7.271C11.2188 7.271 11.9611 7.38418 12.6484 7.61057C13.3358 7.83251 13.9452 8.14768 14.4767 8.55606C15.0128 8.96445 15.4504 9.45051 15.7895 10.0142C16.1286 10.5736 16.3462 11.1906 16.4425 11.8653H13.4182ZM31.2283 12.2315H28.2179C28.1629 11.8542 28.0507 11.519 27.8812 11.2261C27.7115 10.9287 27.4939 10.6757 27.2281 10.467C26.9625 10.2584 26.6554 10.0986 26.3071 9.98762C25.9634 9.87664 25.59 9.82115 25.1868 9.82115C24.4583 9.82115 23.8236 9.9965 23.2829 10.3472C22.7423 10.6934 22.3229 11.1994 22.0252 11.8653C21.7273 12.5267 21.5784 13.3301 21.5784 14.2756C21.5784 15.2477 21.7273 16.0644 22.0252 16.7258C22.3276 17.3872 22.7491 17.8866 23.2899 18.2241C23.8305 18.5614 24.456 18.73 25.1662 18.73C25.5649 18.73 25.9337 18.6789 26.2728 18.5769C26.6165 18.4749 26.9212 18.3261 27.187 18.1308C27.4526 17.9311 27.6726 17.6891 27.8468 17.405C28.0254 17.121 28.1492 16.7969 28.2179 16.4329L31.2283 16.4463C31.1504 17.0721 30.9557 17.6758 30.6441 18.2574C30.3371 18.8344 29.9225 19.3514 29.4 19.8088C28.8823 20.2614 28.2637 20.621 27.5444 20.8874C26.8296 21.1493 26.0207 21.2802 25.1181 21.2802C23.8626 21.2802 22.74 21.005 21.7502 20.4546C20.765 19.9041 19.9862 19.1074 19.4134 18.0643C18.8452 17.0211 18.561 15.7582 18.561 14.2756C18.561 12.7886 18.8497 11.5235 19.4271 10.4803C20.0044 9.43718 20.7879 8.64262 21.7778 8.09664C22.7675 7.54621 23.8808 7.271 25.1181 7.271C25.9337 7.271 26.6897 7.38196 27.3862 7.60392C28.0873 7.82586 28.7081 8.1499 29.2489 8.57604C29.7896 8.99773 30.2294 9.51487 30.5686 10.1274C30.9121 10.74 31.1321 11.4414 31.2283 12.2315Z" fill="url(#paint5_linear_1508_6840)"/>
<path d="M13.4182 11.8653L12.9532 11.9949L13.0539 12.334H13.4182V11.8653ZM13.0127 11.0063L12.6101 11.2664L12.6112 11.268L12.6123 11.2695L13.0127 11.0063ZM12.3735 10.3671L12.0855 10.7438L12.0895 10.7467L12.0936 10.7495L12.3735 10.3671ZM11.5212 9.96098L11.3803 10.4094L11.3822 10.41L11.5212 9.96098ZM8.57263 10.3405L8.30738 9.94846L8.30581 9.94946L8.57263 10.3405ZM7.30797 11.852L7.74989 12.0429L7.75039 12.0418L7.30797 11.852ZM8.56576 18.2107L8.29813 18.6013L8.29933 18.6021L8.3005 18.6027L8.56576 18.2107ZM12.2223 18.3838L12.4387 18.8032L12.4403 18.8022L12.2223 18.3838ZM13.322 17.3918L12.904 17.1555L12.9031 17.1571L12.9022 17.1586L13.322 17.3918ZM13.7069 15.8804L13.7776 15.4166L13.223 15.3372V15.8804H13.7069ZM14.3117 15.9669V16.4357L14.3824 15.5031L14.3117 15.9669ZM10.6827 15.9669H10.1988V16.4357H10.6827V15.9669ZM10.6827 13.7962V13.3275H10.1988V13.7962H10.6827ZM16.5729 13.7962H17.0568V13.3275H16.5729V13.7962ZM15.7895 18.6035L16.2061 18.8419L16.2066 18.841L15.7895 18.6035ZM13.6313 20.5877L13.8545 21.0036L13.8562 21.0029L13.6313 20.5877ZM7.00555 20.4346L6.76055 20.8388L6.76199 20.8396L7.00555 20.4346ZM4.66868 18.0175L4.2381 18.2314L4.23867 18.2325L4.23923 18.2336L4.66868 18.0175ZM4.33189 11.3326L3.87846 11.169L3.87797 11.1702L4.33189 11.3326ZM12.6484 7.61057L12.4927 8.05437L12.494 8.05482L12.4954 8.05526L12.6484 7.61057ZM14.4767 8.55606L14.176 8.92332L14.1776 8.92454L14.4767 8.55606ZM15.7895 10.0142L15.3714 10.2502L15.3722 10.2516L15.7895 10.0142ZM16.4424 11.8653V12.334H16.9978L16.9218 11.8011L16.4424 11.8653ZM13.8832 11.7357C13.7746 11.3698 13.6192 11.0374 13.4131 10.7431L12.6123 11.2695C12.7545 11.4725 12.8694 11.7126 12.9532 11.9949L13.8832 11.7357ZM13.4153 10.7463C13.2089 10.4464 12.9545 10.1916 12.6534 9.98476L12.0936 10.7495C12.2966 10.8889 12.4683 11.0603 12.6101 11.2664L13.4153 10.7463ZM12.6615 9.99048C12.3653 9.77793 12.0299 9.61943 11.6603 9.512L11.3822 10.41C11.654 10.489 11.8868 10.6012 12.0855 10.7438L12.6615 9.99048ZM11.6621 9.51254C11.2935 9.40386 10.8946 9.3524 10.4696 9.3524V10.2899C10.8145 10.2899 11.1166 10.3317 11.3803 10.4094L11.6621 9.51254ZM10.4696 9.3524C9.66612 9.3524 8.93954 9.54706 8.30738 9.94846L8.83789 10.7325C9.29628 10.4415 9.83436 10.2899 10.4696 10.2899V9.3524ZM8.30581 9.94946C7.67675 10.3523 7.19962 10.9315 6.86557 11.6621L7.75039 12.0418C8.02117 11.4496 8.38715 11.0212 8.83946 10.7315L8.30581 9.94946ZM6.86605 11.661C6.52862 12.3941 6.37047 13.2667 6.37047 14.2623H7.33821C7.33821 13.3581 7.48249 12.6238 7.74989 12.0429L6.86605 11.661ZM6.37047 14.2623C6.37047 15.2574 6.52618 16.1325 6.85712 16.8724L7.74509 16.4996C7.48034 15.9077 7.33821 15.167 7.33821 14.2623H6.37047ZM6.85712 16.8724C7.18663 17.6089 7.66415 18.1935 8.29813 18.6013L8.83339 17.8202C8.37684 17.5266 8.01125 17.0946 7.74509 16.4996L6.85712 16.8724ZM8.3005 18.6027C8.93513 19.0057 9.67402 19.1988 10.4971 19.1988V18.2613C9.83562 18.2613 9.28694 18.1082 8.83102 17.8186L8.3005 18.6027ZM10.4971 19.1988C11.2265 19.1988 11.8796 19.0739 12.4387 18.8032L12.0059 17.9646C11.6119 18.1554 11.1149 18.2613 10.4971 18.2613V19.1988ZM12.4403 18.8022C13.0004 18.5285 13.4397 18.1357 13.7418 17.6247L12.9022 17.1586C12.7002 17.5 12.4064 17.7686 12.0042 17.9654L12.4403 18.8022ZM13.74 17.6279C14.0469 17.1182 14.1908 16.5299 14.1908 15.8804H13.223C13.223 16.3938 13.1103 16.813 12.904 17.1555L13.74 17.6279ZM13.6362 16.3439L14.241 16.4305L14.3824 15.5031L13.7776 15.4166L13.6362 16.3439ZM14.3117 15.4981H10.6827V16.4357H14.3117V15.4981ZM11.1666 15.9669V13.7962H10.1988V15.9669H11.1666ZM10.6827 14.265H16.5729V13.3275H10.6827V14.265ZM16.0891 13.7962V15.5141H17.0568V13.7962H16.0891ZM16.0891 15.5141C16.0891 16.6458 15.843 17.59 15.3723 18.3661L16.2066 18.841C16.7807 17.8947 17.0568 16.7794 17.0568 15.5141H16.0891ZM15.3728 18.3652C14.8966 19.1463 14.2438 19.7468 13.4064 20.1727L13.8562 21.0029C14.8516 20.4966 15.6376 19.7743 16.2061 18.8419L15.3728 18.3652ZM13.4081 20.1719C12.57 20.5941 11.5992 20.8114 10.4834 20.8114V21.7489C11.732 21.7489 12.8598 21.5047 13.8545 21.0036L13.4081 20.1719ZM10.4834 20.8114C9.23699 20.8114 8.16412 20.546 7.24912 20.0296L6.76199 20.8396C7.84479 21.4507 9.09047 21.7489 10.4834 21.7489V20.8114ZM7.25055 20.0304C6.33402 19.5091 5.61726 18.7704 5.09812 17.8016L4.23923 18.2336C4.83813 19.3511 5.67929 20.2238 6.76055 20.8388L7.25055 20.0304ZM5.09925 17.8038C4.58678 16.8355 4.32089 15.6689 4.32089 14.2889H3.35315C3.35315 15.7852 3.64171 17.1046 4.2381 18.2314L5.09925 17.8038ZM4.32089 14.2889C4.32089 13.2284 4.4792 12.2994 4.78581 11.495L3.87797 11.1702C3.52476 12.097 3.35315 13.1389 3.35315 14.2889H4.32089ZM4.78533 11.4962C5.09917 10.6799 5.53304 9.99984 6.0825 9.44721L5.38552 8.79684C4.73449 9.45161 4.2336 10.2452 3.87846 11.169L4.78533 11.4962ZM6.0825 9.44721C6.6362 8.89036 7.27862 8.46811 8.01315 8.17775L7.64752 7.30973C6.78747 7.6497 6.03234 8.14631 5.38552 8.79684L6.0825 9.44721ZM8.01315 8.17775C8.74788 7.88731 9.54897 7.73975 10.4215 7.73975V6.80225C9.43373 6.80225 8.50736 6.96984 7.64752 7.30973L8.01315 8.17775ZM10.4215 7.73975C11.171 7.73975 11.8602 7.84604 12.4927 8.05437L12.8042 7.16678C12.062 6.92232 11.2666 6.80225 10.4215 6.80225V7.73975ZM12.4954 8.05526C13.1329 8.26112 13.6916 8.55114 14.176 8.92332L14.7774 8.18879C14.1987 7.74422 13.5386 7.40392 12.8014 7.16587L12.4954 8.05526ZM14.1776 8.92454C14.6664 9.29689 15.0634 9.7382 15.3714 10.2502L16.2076 9.77826C15.8374 9.16282 15.3592 8.632 14.7758 8.18759L14.1776 8.92454ZM15.3722 10.2516C15.6774 10.7551 15.8752 11.3127 15.9631 11.9294L16.9218 11.8011C16.8173 11.0684 16.5797 10.392 16.2066 9.77686L15.3722 10.2516ZM16.4424 11.3965H13.4182V12.334H16.4424V11.3965ZM31.2282 12.2315V12.7002H31.7726L31.7089 12.1766L31.2282 12.2315ZM28.2179 12.2315L27.7387 12.297L27.7974 12.7002H28.2179V12.2315ZM27.8812 11.2261L27.4574 11.4527L27.4582 11.454L27.4591 11.4553L27.8812 11.2261ZM26.3071 9.98762L26.1541 10.4323L26.156 10.4329L26.3071 9.98762ZM23.2829 10.3472L23.5497 10.7382L23.551 10.7374L23.5521 10.7367L23.2829 10.3472ZM22.0252 11.8653L22.4687 12.0527L22.4691 12.0517L22.0252 11.8653ZM22.0252 16.7258L21.5816 16.9133L21.5821 16.9146L21.5828 16.9157L22.0252 16.7258ZM26.2728 18.5769L26.1308 18.1288L26.1292 18.1293L26.2728 18.5769ZM27.187 18.1308L27.4794 18.5043L27.4815 18.5027L27.4836 18.5011L27.187 18.1308ZM27.8468 17.405L27.4336 17.1611L27.4321 17.1635L27.4307 17.1657L27.8468 17.405ZM28.2179 16.4329L28.22 15.9641L27.8149 15.9624L27.742 16.3486L28.2179 16.4329ZM31.2282 16.4463L31.7087 16.5024L31.7737 15.9799L31.2305 15.9775L31.2282 16.4463ZM30.6441 18.2574L30.2147 18.0413L30.2141 18.0425L30.6441 18.2574ZM29.4 19.8088L29.7242 20.1568L29.7244 20.1566L29.4 19.8088ZM27.5444 20.8874L27.7155 21.3258L27.717 21.3252L27.5444 20.8874ZM21.7502 20.4546L21.5084 20.8607L21.5094 20.8611L21.7502 20.4546ZM19.4134 18.0643L18.9853 18.283L18.9862 18.2844L19.4134 18.0643ZM21.7778 8.09664L22.0171 8.50398L22.0186 8.50315L21.7778 8.09664ZM27.3862 7.60392L27.235 8.0492L27.2358 8.04948L27.3862 7.60392ZM29.2489 8.57604L28.9434 8.93965L28.9444 8.9404L28.9453 8.94117L29.2489 8.57604ZM30.5686 10.1274L30.1421 10.349L30.1428 10.3501L30.1434 10.3513L30.5686 10.1274ZM31.2282 11.7627H28.2179V12.7002H31.2282V11.7627ZM28.697 12.166C28.6347 11.7388 28.5057 11.3468 28.3031 10.9969L27.4591 11.4553C27.5955 11.6912 27.691 11.9695 27.7387 12.297L28.697 12.166ZM28.3047 10.9995C28.1058 10.6506 27.8482 10.3504 27.5328 10.1028L26.9236 10.8312C27.1395 11.0009 27.3173 11.2068 27.4574 11.4527L28.3047 10.9995ZM27.5328 10.1028C27.2182 9.85587 26.8584 9.66981 26.4582 9.54234L26.156 10.4329C26.4524 10.5274 26.7066 10.6609 26.9236 10.8312L27.5328 10.1028ZM26.4602 9.54292C26.062 9.41432 25.6362 9.3524 25.1868 9.3524V10.2899C25.5439 10.2899 25.865 10.339 26.1541 10.4323L26.4602 9.54292ZM25.1868 9.3524C24.3742 9.3524 23.6434 9.54926 23.0137 9.95765L23.5521 10.7367C24.0039 10.4437 24.5423 10.2899 25.1868 10.2899V9.3524ZM23.0162 9.95612C22.3855 10.3599 21.9103 10.9429 21.5811 11.6789L22.4691 12.0517C22.7357 11.4559 23.0991 11.0269 23.5497 10.7382L23.0162 9.95612ZM21.5816 11.6778C21.2503 12.4137 21.0945 13.2847 21.0945 14.2756H22.0623C22.0623 13.3755 22.2044 12.6397 22.4686 12.0527L21.5816 11.6778ZM21.0945 14.2756C21.0945 15.2911 21.2497 16.1761 21.5816 16.9133L22.4686 16.5385C22.205 15.9529 22.0623 15.2044 22.0623 14.2756H21.0945ZM21.5828 16.9157C21.9171 17.6471 22.3955 18.2236 23.0278 18.6182L23.5518 17.8299C23.1028 17.5497 22.7381 17.1275 22.4676 16.536L21.5828 16.9157ZM23.0278 18.6182C23.6547 19.0093 24.3731 19.1988 25.1662 19.1988V18.2613C24.5389 18.2613 24.0063 18.1135 23.5518 17.8299L23.0278 18.6182ZM25.1662 19.1988C25.6076 19.1988 26.0255 19.1422 26.4163 19.0246L26.1292 18.1293C25.842 18.2158 25.522 18.2613 25.1662 18.2613V19.1988ZM26.4147 19.025C26.8084 18.9082 27.1649 18.7354 27.4794 18.5043L26.8944 17.7574C26.6773 17.9169 26.4244 18.0416 26.1308 18.1288L26.4147 19.025ZM27.4836 18.5011C27.7979 18.2649 28.0581 17.9783 28.2628 17.6444L27.4307 17.1657C27.2871 17.4 27.1074 17.5972 26.8903 17.7605L27.4836 18.5011ZM28.2599 17.6489C28.4728 17.3107 28.6157 16.9314 28.6939 16.5172L27.742 16.3486C27.6826 16.6624 27.5781 16.9313 27.4336 17.1611L28.2599 17.6489ZM28.2157 16.9016L31.2262 16.915L31.2305 15.9775L28.22 15.9641L28.2157 16.9016ZM30.7479 16.3902C30.6773 16.958 30.5005 17.5077 30.2147 18.0413L31.0736 18.4733C31.4108 17.8439 31.6236 17.1863 31.7087 16.5024L30.7479 16.3902ZM30.2141 18.0425C29.935 18.5669 29.557 19.0396 29.0757 19.461L29.7244 20.1566C30.2878 19.6635 30.7392 19.1018 31.0742 18.4721L30.2141 18.0425ZM29.0758 19.4608C28.6068 19.871 28.041 20.2018 27.3716 20.4496L27.717 21.3252C28.4865 21.0404 29.1578 20.6521 29.7242 20.1568L29.0758 19.4608ZM27.3731 20.4489C26.722 20.6875 25.9726 20.8114 25.1181 20.8114V21.7489C26.0689 21.7489 26.937 21.611 27.7155 21.3258L27.3731 20.4489ZM25.1181 20.8114C23.9384 20.8114 22.9003 20.5538 21.9912 20.048L21.5094 20.8611C22.5795 21.4563 23.7868 21.7489 25.1181 21.7489V20.8114ZM21.992 20.0485C21.0912 19.5452 20.3739 18.8155 19.8405 17.8441L18.9862 18.2844C19.5982 19.3993 20.4391 20.2632 21.5084 20.8607L21.992 20.0485ZM19.8413 17.8455C19.3181 16.8849 19.0449 15.7011 19.0449 14.2756H18.0771C18.0771 15.8152 18.3723 17.1572 18.9853 18.283L19.8413 17.8455ZM19.0449 14.2756C19.0449 12.8464 19.3223 11.6616 19.8536 10.7018L19.0007 10.2588C18.3771 11.3854 18.0771 12.7307 18.0771 14.2756H19.0449ZM19.8536 10.7018C20.3912 9.73056 21.1123 9.00312 22.0171 8.50398L21.5382 7.68929C20.4636 8.28214 19.6178 9.14382 19.0007 10.2588L19.8536 10.7018ZM22.0186 8.50315C22.9289 7.9969 23.9581 7.73975 25.1181 7.73975V6.80225C23.8037 6.80225 22.606 7.09551 21.5368 7.69011L22.0186 8.50315ZM25.1181 7.73975C25.8881 7.73975 26.5924 7.84445 27.235 8.0492L27.5374 7.15864C26.787 6.9195 25.9794 6.80225 25.1181 6.80225V7.73975ZM27.2358 8.04948C27.8839 8.25461 28.4515 8.55189 28.9434 8.93965L29.5542 8.21242C28.9649 7.74792 28.2907 7.39712 27.5365 7.15836L27.2358 8.04948ZM28.9453 8.94117C29.4339 9.32212 29.8326 9.78986 30.1421 10.349L30.9949 9.90592C30.6263 9.23989 30.1452 8.67334 29.5523 8.21092L28.9453 8.94117ZM30.1434 10.3513C30.4537 10.9046 30.6578 11.5472 30.7478 12.2864L31.7089 12.1766C31.6065 11.3355 31.3705 10.5754 30.9936 9.90361L30.1434 10.3513Z" fill="#E9E4E4" fill-opacity="0.6"/>
<defs>
<linearGradient id="paint0_linear_1508_6840" x1="105.5" y1="0" x2="105.5" y2="30" gradientUnits="userSpaceOnUse">
<stop stop-color="#BE9461"/>
<stop offset="0.375" stop-color="#B18553"/>
<stop offset="1" stop-color="#9C6C3C"/>
</linearGradient>
<linearGradient id="paint1_linear_1508_6840" x1="46.6102" y1="9.24223" x2="7.79615" y2="9.24223" gradientUnits="userSpaceOnUse">
<stop stop-color="#996939"/>
<stop offset="1" stop-color="#D0A875"/>
</linearGradient>
<linearGradient id="paint2_linear_1508_6840" x1="25.3181" y1="28.915" x2="28.936" y2="-6.30194" gradientUnits="userSpaceOnUse">
<stop stop-color="#272728"/>
<stop offset="1" stop-color="#4B4B4B"/>
</linearGradient>
<linearGradient id="paint3_linear_1508_6840" x1="17.5429" y1="3.81058" x2="2.42149" y2="15.9924" gradientUnits="userSpaceOnUse">
<stop stop-color="#996939"/>
<stop offset="1" stop-color="#D0A875"/>
</linearGradient>
<linearGradient id="paint4_linear_1508_6840" x1="9.77248" y1="28.915" x2="9.77248" y2="10.5145" gradientUnits="userSpaceOnUse">
<stop stop-color="#363636"/>
<stop offset="1" stop-color="#333232"/>
</linearGradient>
<linearGradient id="paint5_linear_1508_6840" x1="17.5" y1="2.96879" x2="17.5" y2="29.9905" gradientUnits="userSpaceOnUse">
<stop stop-color="#BE9461"/>
<stop offset="0.375" stop-color="#B18553"/>
<stop offset="1" stop-color="#9C6C3C"/>
</linearGradient>
</defs>
</svg>
